<svg version="1.1" viewBox="100 170 500 200" xmlns="http://www.w3.org/2000/svg" xmlns:xlink="http://www.w3.org/1999/xlink">
 <g>
  <path d="m351.93 392.17c4.7266-0.41016 9.1992-2.3086 12.773-5.4258l207.2-179.2c4.7148-3.832 7.6719-9.4102 8.1953-15.461 0.51953-6.0508-1.4336-12.055-5.4219-16.633-3.9883-4.582-9.6641-7.3477-15.73-7.6641s-12 1.8398-16.441 5.9805l-192.5 166.43-192.5-166.43c-4.4414-4.1406-10.375-6.2969-16.441-5.9805s-11.742 3.082-15.73 7.6641c-3.9883 4.5781-5.9414 10.582-5.4219 16.633 0.52344 6.0508 3.4805 11.629 8.1953 15.461l207.2 179.2c4.5781 3.9883 10.578 5.9453 16.625 5.4258z"/>
 </g>
</svg>
